<?xml version="1.0" encoding="utf-8"?>
<!-- Generator: Adobe Illustrator 26.0.2, SVG Export Plug-In . SVG Version: 6.00 Build 0)  -->
<svg version="1.1" id="Layer_1" xmlns="http://www.w3.org/2000/svg" xmlns:xlink="http://www.w3.org/1999/xlink" x="0px" y="0px"
	 viewBox="0 0 800 800" enable-background="new 0 0 800 800" xml:space="preserve">
<g>
	<path fill="#E6E9EE" d="M401.9,572c-0.6,0-1.3,0.6-2.5,0.6c-0.6,0-1.3-0.6-2.5-0.6H401.9z"/>
	<path fill="#E6E9EE" d="M721.9,636.2C737,669,731,800,731,800c-16,0-231.4,0-331.6,0c-98.7,0-342.4,0-342.4,0s-2.9-124,19.9-163.8
		c56.7-60.5,133.5-92.6,197.8-109c-5.7,46,18.3,107.7,18.9,105.8c23.9-55.4,105.2-60.5,105.2-60.5s81.3,4.4,105.8,60.5
		c0.6,1.3,24.6-59.8,18.9-105.8C588.3,543.6,665.2,575.7,721.9,636.2z"/>
</g>
<path fill="#FFD05B" d="M498.9,485L498.9,485c0,8.2-5,51.7-97,86.9h-5c-92-35.3-97-78.7-97-86.9l0,0c0.6-16.4,4.4-32.8,11.3-47.9
	c25.2,28.3,55.4,47.2,88.2,47.2c32.1,0,63-18.3,88.2-47.2C494.5,452.3,498.9,468.7,498.9,485z"/>
<path fill="#F1543F" d="M454.2,586.5L434,626.8h-69.3l-20.2-40.3c27.7-12,54.8-13.9,54.8-13.9S427.1,574.5,454.2,586.5z"/>
<path fill="#FF7058" d="M343.3,796.2c18.3,2.5,37.2,3.8,56.7,3.8c18.9,0,37.8-1.3,56.7-3.8l-22-168.8h-69.3L343.3,796.2z"/>
<g>
	<path fill="#FFFFFF" d="M498.9,483.8c0,0,4.4,50.4-99.5,88.8c0,0,81.3,4.4,105.8,60.5C505.8,635.6,553.1,513.4,498.9,483.8z"/>
	<path fill="#FFFFFF" d="M299.8,483.8c-53.5,29.6-6.9,151.2-5.7,149.3c23.9-55.4,105.8-60.5,105.8-60.5
		C295.4,534.2,299.8,483.8,299.8,483.8z"/>
</g>
<path fill="#F9B54C" d="M492.6,449.8c-26.5,28.3-58,46.6-93.2,46.6s-66.8-18.3-93.2-46.6c1.3-4.4,3.1-8.8,5-12.6
	c25.2,28.3,55.4,47.2,88.2,47.2s63-18.3,88.2-47.2C489.4,440.9,491.3,445.4,492.6,449.8z"/>
<path fill="#FFD05B" d="M571.3,353.4c-13.2,22-33.4,35.3-48.5,32.8c-30.2,56.1-74.3,97.6-123.5,97.6s-93.2-42.2-123.5-97.6
	c-15.1,1.9-35.3-10.7-48.5-32.8c-15.7-25.8-16.4-54.2-1.3-63.6c3.8-1.9,7.6-3.1,12-2.5c10.1,25.8,23.9,41.6,23.9,41.6
	c-14.5-80,44.7-88.8,34.6-165.7c0,0,37.2,82.5,143.6,24.6l-8.2,15.7c148.7-33.4,98.9,141.7,97.6,146.1c17-21.4,27.7-42.8,34-62.4
	c2.5,0,5.7,1.3,7.6,2.5C587.7,298.6,587.1,327.6,571.3,353.4z"/>
<path fill="#324A5E" d="M485,80c12-1.3,31.5,9.4,31.5,9.4c-53.5-61.1-141.1-22-141.1-22c29.6-25.2,56.1-22.7,56.1-22.7
	c-125.4-18.9-146.8,56.1-146.8,56.1c-5.7-8.8-5.7-21.4-5-27.7c-8.8,15.1,0.6,45.4,0.6,45.4c-8.8-22-39.7-18.3-39.7-18.3
	c26.5,4.4,30.9,20.8,30.9,20.8c-66.1,24.6-54.8,93.2-54.8,93.2l15.7-18.9c-19.5,75,30.2,132.9,30.2,132.9
	c-14.5-80,44.7-88.8,34.6-165.7c0,0,37.2,82.5,143.6,24.6l-8.2,15.7c150.6-34,97.6,146.8,97.6,146.8c53.5-68,45.4-138,45.4-138
	l6.3,25.2C599.1,123.5,485,80,485,80z"/>
</svg>
